<?xml version="1.0" standalone="no"?>
<!DOCTYPE svg PUBLIC "-//W3C//DTD SVG 20010904//EN"
 "http://www.w3.org/TR/2001/REC-SVG-20010904/DTD/svg10.dtd">
<svg version="1.0" xmlns="http://www.w3.org/2000/svg"
 width="503.000000pt" height="132.000000pt" viewBox="0 0 503.000000 132.000000"
 preserveAspectRatio="xMidYMid meet">

<g transform="translate(0.000000,132.000000) scale(0.100000,-0.100000)"
fill="#000000" stroke="none">
<path d="M0 660 l0 -660 2515 0 2515 0 0 660 0 660 -2515 0 -2515 0 0 -660z
m2878 422 c35 -45 -1 -102 -65 -102 -60 0 -96 66 -55 102 32 29 97 29 120 0z
m705 11 c16 -10 24 -48 15 -74 -14 -40 -91 -54 -122 -23 -19 18 -21 77 -3 92
24 19 80 22 110 5z m-1193 -93 l0 -99 36 24 c69 47 168 25 204 -46 17 -33 20
-59 20 -194 l0 -155 -70 0 -70 0 -1 123 c-1 67 -4 133 -8 146 -8 28 -37 42
-68 30 -31 -11 -43 -65 -43 -191 l0 -108 -70 0 -70 0 0 285 0 285 70 0 70 0 0
-100z m734 -9 c-1 -79 1 -101 10 -90 57 76 171 59 218 -32 27 -54 34 -153 14
-221 -22 -77 -69 -118 -134 -118 -30 0 -59 8 -81 21 l-33 20 -15 -21 c-12 -18
-23 -20 -66 -18 l-52 3 -3 270 c-1 148 0 276 3 283 3 9 24 12 72 10 l68 -3 -1
-104z m-1424 9 l0 -60 -86 0 -85 0 3 -37 3 -38 78 -3 77 -3 0 -54 0 -55 -80 0
-80 0 0 -50 0 -50 85 0 85 0 0 -60 0 -60 -155 0 -155 0 0 265 0 265 155 0 155
0 0 -60z m2160 -20 l0 -40 50 0 50 0 0 -50 0 -50 -50 0 -50 0 0 -87 c0 -111 4
-118 64 -109 l47 7 -3 -52 c-3 -51 -4 -53 -38 -62 -19 -5 -62 -7 -94 -5 -51 4
-63 9 -87 36 -28 32 -29 35 -29 152 l0 120 -25 0 c-21 0 -25 5 -25 29 0 23 7
34 30 48 18 10 37 35 47 60 18 42 19 43 66 43 l47 0 0 -40z m-3417 8 c3 -13 6
-128 6 -256 0 -128 3 -238 7 -244 4 -6 0 -16 -9 -23 -9 -7 -15 -14 -12 -17 3
-2 -6 -15 -20 -28 l-25 -23 0 131 c0 72 -4 133 -8 136 -5 3 -35 -22 -67 -54
-33 -33 -66 -60 -74 -60 -17 0 -141 119 -141 135 0 6 33 41 74 77 l74 67 65
-69 c49 -52 66 -66 71 -54 3 9 6 71 6 138 0 101 3 126 18 144 22 28 28 28 35
0z m3848 -50 c86 -29 132 -100 133 -202 1 -76 -29 -141 -81 -176 -32 -22 -48
-25 -118 -25 -70 0 -86 3 -118 25 -100 67 -118 245 -33 332 52 53 141 72 217
46z m500 -53 c-1 -33 -5 -63 -7 -67 -3 -5 -24 -8 -48 -8 -74 0 -80 -11 -86
-152 l-5 -123 -67 -3 -68 -3 0 206 0 205 54 0 c52 0 55 -1 61 -30 7 -32 19
-39 29 -15 10 26 69 56 105 53 l35 -3 -3 -60z m-2853 5 c15 -27 30 -50 33 -50
3 0 18 23 33 50 l27 50 80 0 81 0 -23 -37 c-12 -21 -35 -56 -49 -78 -57 -85
-58 -76 9 -180 34 -51 61 -98 61 -104 0 -7 -28 -11 -75 -11 l-74 0 -33 60
c-18 33 -35 60 -38 60 -3 0 -19 -26 -36 -58 l-31 -57 -76 -3 c-46 -2 -77 1
-77 7 0 6 27 53 61 106 l61 97 -47 76 c-26 41 -54 86 -62 99 l-15 23 81 0 81
0 28 -50z m950 -152 l-3 -203 -70 0 -70 0 -3 203 -2 202 75 0 75 0 -2 -202z
m712 -3 l0 -205 -70 0 -70 0 0 205 0 205 70 0 70 0 0 -205z m-2410 20 c33 -33
60 -64 60 -70 0 -6 -29 -39 -64 -74 -46 -46 -69 -62 -81 -57 -11 4 -15 12 -11
22 5 12 2 15 -11 10 -10 -4 -14 -4 -11 0 4 4 2 16 -4 28 -10 18 -9 19 4 9 22
-19 28 -5 13 30 -9 22 -10 37 -3 50 5 11 7 29 4 42 -4 14 0 27 9 35 7 6 11 18
9 25 -12 30 30 6 86 -50z m-95 35 c-3 -5 -11 -10 -16 -10 -6 0 -7 5 -4 10 3 6
11 10 16 10 6 0 7 -4 4 -10z m1543 -396 c17 -11 22 -25 22 -56 0 -54 -22 -78
-72 -78 l-38 0 0 75 0 75 33 0 c18 0 43 -7 55 -16z m82 -65 c0 -55 -3 -69 -15
-69 -12 0 -15 14 -15 68 0 38 3 72 6 75 16 16 24 -9 24 -74z m130 62 c14 -27
13 -37 -7 -56 -15 -16 -15 -19 1 -46 13 -22 14 -29 4 -29 -7 0 -21 14 -30 30
-22 38 -38 38 -38 0 0 -16 -4 -30 -10 -30 -6 0 -10 32 -10 75 l0 75 40 0 c29
0 42 -5 50 -19z m130 9 c0 -5 -16 -10 -35 -10 -28 0 -35 -4 -35 -20 0 -15 7
-20 24 -20 14 0 28 -4 31 -10 4 -6 -7 -10 -24 -10 -28 0 -31 -3 -31 -29 0 -27
4 -30 38 -34 34 -3 33 -4 -10 -5 l-48 -2 0 75 0 75 45 0 c25 0 45 -4 45 -10z
m127 -7 c3 -7 -8 -10 -28 -10 -38 2 -59 -27 -51 -69 6 -32 45 -52 66 -35 10 8
16 9 21 1 8 -13 -42 -32 -66 -25 -47 15 -59 96 -21 138 18 20 73 20 79 0z
m133 7 c0 -5 -11 -10 -25 -10 -24 0 -25 -2 -25 -65 0 -37 -4 -65 -10 -65 -6 0
-10 28 -10 65 0 58 -2 65 -20 65 -11 0 -20 5 -20 10 0 6 25 10 55 10 30 0 55
-4 55 -10z m120 -10 c29 -29 27 -84 -5 -115 -31 -31 -49 -31 -80 0 -48 47 -22
135 40 135 14 0 34 -9 45 -20z m138 8 c17 -17 15 -53 -3 -68 -13 -11 -13 -15
0 -33 17 -25 19 -37 5 -37 -5 0 -16 14 -25 30 -9 17 -22 30 -30 30 -10 0 -15
-10 -15 -30 0 -16 -4 -30 -10 -30 -6 0 -10 32 -10 75 l0 75 38 0 c21 0 43 -5
50 -12z m61 -25 l19 -38 18 38 c10 20 21 37 26 37 12 0 10 -6 -12 -50 -11 -22
-20 -53 -20 -70 0 -16 -4 -30 -10 -30 -5 0 -10 11 -10 25 0 14 -11 48 -25 75
-14 28 -21 50 -15 50 5 0 18 -17 29 -37z m-1059 -43 c0 -7 -175 -10 -505 -10
-330 0 -505 3 -505 10 0 7 175 10 505 10 330 0 505 -3 505 -10z m2200 0 c0 -7
-175 -10 -505 -10 -330 0 -505 3 -505 10 0 7 175 10 505 10 330 0 505 -3 505
-10z"/>
<path d="M3150 820 c-25 -25 -28 -124 -4 -158 37 -54 84 -10 84 80 0 45 -5 63
-20 78 -11 11 -24 20 -30 20 -5 0 -19 -9 -30 -20z"/>
<path d="M4179 818 c-14 -26 -17 -100 -6 -141 13 -49 75 -56 96 -11 16 37 14
126 -5 152 -21 30 -69 30 -85 0z"/>
<path d="M2572 333 c2 -44 7 -59 19 -61 25 -5 49 26 49 62 0 38 -15 56 -47 56
-23 0 -24 -3 -21 -57z"/>
<path d="M2780 365 c0 -20 5 -25 24 -25 24 0 41 23 30 41 -3 5 -16 9 -30 9
-19 0 -24 -5 -24 -25z"/>
<path d="M3278 365 c-14 -31 -2 -72 25 -89 15 -9 22 -7 38 13 10 13 19 32 19
43 0 57 -60 81 -82 33z"/>
<path d="M3430 364 c0 -22 4 -25 28 -22 19 2 28 9 30 26 3 19 -1 22 -27 22
-27 0 -31 -4 -31 -26z"/>
</g>
</svg>
